<?xml version="1.0" encoding="UTF-8"?>
<svg width="298px" height="112px" viewBox="0 0 298 112" version="1.1" xmlns="http://www.w3.org/2000/svg" xmlns:xlink="http://www.w3.org/1999/xlink">
    <!-- Generator: Sketch 48.1 (47250) - http://www.bohemiancoding.com/sketch -->
    <title>Group</title>
    <desc>Created with Sketch.</desc>
    <defs>
        <path d="M81.978,79.741 C81.6739985,79.7156665 81.3700015,79.6206675 81.066,79.456 C80.7619985,79.2913325 80.4833346,79.1203342 80.23,78.943 C79.9766654,78.7656658 79.8056671,78.6453336 79.717,78.582 C79.5016656,78.3666656 79.3370006,78.1355012 79.223,77.8885 C79.1089994,77.6414988 79.0140004,77.3153354 78.938,76.91 C78.9126665,76.7579992 78.9,76.6250006 78.9,76.511 C78.9,76.1309981 78.9664993,75.6655028 79.0995,75.1145 C79.2325007,74.5634972 79.368666,74.1360015 79.508,73.832 C79.7866681,73.1606633 80.4009952,72.0840074 81.351,70.602 L81.4555,70.4975 C81.4745001,70.4784999 81.4808334,70.4658334 81.4745,70.4595 L81.465,70.45 C81.465,70.3613329 81.6486648,69.9686701 82.016,69.272 C82.2313344,69.0439989 82.339,68.8476675 82.339,68.683 C82.339,68.5943329 82.3200002,68.5246669 82.282,68.474 C82.2439998,68.4233331 82.294666,68.3125009 82.434,68.1415 C82.573334,67.9704991 82.7664988,67.780501 83.0135,67.5715 C83.2605012,67.362499 83.5233319,67.1820008 83.802,67.03 C84.1440017,66.7639987 84.479665,66.631 84.809,66.631 C84.9103338,66.631 84.995833,66.6468332 85.0655,66.6785 C85.135167,66.7101668 85.1763333,66.7576663 85.189,66.821 C85.189,66.8970004 85.4423308,66.8716673 85.949,66.745 C86.1770011,66.6943331 86.3416662,66.6626667 86.443,66.65 C86.4936669,66.5866663 86.623499,66.5328336 86.8325,66.4885 C87.041501,66.4441664 87.3359981,66.3966669 87.716,66.346 C87.9186677,66.3586667 88.1688318,66.3586667 88.4665,66.346 C88.7641682,66.3333333 88.9573329,66.3206667 89.046,66.308 C89.1346671,66.2826665 89.2644991,66.339666 89.4355,66.479 C89.6065009,66.618334 89.7426662,66.7956656 89.844,67.011 C89.8693335,67.0870004 89.882,67.1439998 89.882,67.182 C89.882,67.3720009 89.7616679,67.5334993 89.521,67.6665 C89.2803321,67.7995007 88.9320023,67.8913331 88.476,67.942 C88.007331,68.0053336 87.5956684,68.0686663 87.241,68.132 C86.8863316,68.1953336 86.4430027,68.2839994 85.911,68.398 L85.512,68.474 C85.1193314,68.5373336 84.828001,68.6196662 84.638,68.721 C84.447999,68.8223338 84.2453344,69.0439983 84.03,69.386 C83.9413329,69.4493336 83.827334,69.610832 83.688,69.8705 C83.548666,70.130168 83.409334,70.3993319 83.27,70.678 L82.89,71.191 C82.5986652,71.5836686 82.418167,71.8401661 82.3485,71.9605 C82.278833,72.0808339 82.2629998,72.1663331 82.301,72.217 C82.3516669,72.2296667 82.4434993,72.2486665 82.5765,72.274 C82.7095007,72.2993335 82.8203329,72.3183333 82.909,72.331 C83.0230006,72.2676663 83.1813323,72.2233335 83.384,72.198 C83.5866677,72.1726665 83.7323329,72.1473335 83.821,72.122 L84.239,72.008 C85.0243373,71.8053323 85.6006648,71.6596671 85.968,71.571 C86.3353352,71.4823329 86.6076658,71.4253335 86.785,71.4 C86.8483337,71.3493331 86.9243329,71.324 87.013,71.324 C87.152334,71.324 87.2884993,71.3904993 87.4215,71.5235 C87.5545007,71.6565007 87.6526664,71.8116658 87.716,71.989 C87.7666669,72.1663342 87.792,72.2803331 87.792,72.331 C87.792,72.5463344 87.6653346,72.7078328 87.412,72.8155 C87.1586654,72.9231672 86.6520038,73.0656658 85.892,73.243 C84.7899945,73.5090013 84.0996681,73.6799996 83.821,73.756 C82.9976626,73.9966679 82.3896686,74.117 81.997,74.117 C81.667665,74.117 81.5093333,74.0093344 81.522,73.794 C81.4079994,73.7306663 81.2750008,73.8446652 81.123,74.136 C80.9709992,74.4273348 80.8411672,74.7883312 80.7335,75.219 C80.6258328,75.6496688 80.572,76.0233317 80.572,76.34 C80.572,76.5046675 80.5909998,76.6439994 80.629,76.758 C80.7430006,77.0620015 80.9139989,77.318499 81.142,77.5275 C81.3700011,77.736501 81.6866646,77.8979994 82.092,78.012 C82.1806671,78.0246667 82.2914993,78.0373333 82.4245,78.05 C82.5575007,78.0626667 82.7126658,78.069 82.89,78.069 C83.1433346,78.069 83.3966654,78.0183338 83.65,77.917 C84.6380049,77.7523325 85.3346646,77.5243348 85.74,77.233 C85.8033336,77.2076665 85.8634997,77.1633336 85.9205,77.1 C85.9775003,77.0366663 86.0313331,77.005 86.082,77.005 L86.063,77.043 C86.063,77.0556667 86.1009996,77.027167 86.177,76.9575 C86.2530004,76.887833 86.3353329,76.8150004 86.424,76.739 C86.7786684,76.4349985 87.1713312,76.283 87.602,76.283 C87.7540008,76.283 87.8838328,76.3051664 87.9915,76.3495 C88.0991672,76.3938336 88.1593333,76.4349998 88.172,76.473 C88.2480004,76.5996673 88.2100008,76.8023319 88.058,77.081 C87.9059992,77.3596681 87.6685016,77.6509985 87.3455,77.955 C87.0224984,78.2590015 86.6646686,78.5249989 86.272,78.753 C85.6513302,79.082335 84.9578372,79.3261659 84.1915,79.4845 C83.4251628,79.6428341 82.6873369,79.7283333 81.978,79.741 Z M95.981,78.544 C95.182996,78.5186665 94.784,78.0690044 94.784,77.195 C94.784,76.9543321 94.8029998,76.7200011 94.841,76.492 C94.8663335,76.2133319 94.879,76.0170006 94.879,75.903 L94.879,75.599 C94.8409998,75.3456654 94.7586673,75.219 94.632,75.219 C94.4039989,75.219 93.9828364,75.4374978 93.3685,75.8745 C92.7541636,76.3115022 92.1113367,76.833997 91.44,77.442 C91.2373323,77.6573344 91.066334,77.859999 90.927,78.05 C90.8003327,78.2146675 90.7053337,78.3159998 90.642,78.354 C90.5786663,78.3920002 90.477334,78.411 90.338,78.411 C90.1606658,78.3856665 89.9580011,78.2526679 89.73,78.012 C89.5019989,77.7713321 89.3500004,77.5560009 89.274,77.366 C89.274,77.0113316 89.3373327,76.6725016 89.464,76.3495 C89.5906673,76.0264984 89.7806654,75.6180025 90.034,75.124 C90.1480006,74.7439981 90.2936658,74.3640019 90.471,73.984 C90.661001,73.5406644 90.7971663,73.2018345 90.8795,72.9675 C90.9618337,72.7331655 91.0156665,72.4893346 91.041,72.236 C91.041,72.2233333 91.0378334,72.217 91.0315,72.217 L91.022,72.217 C91.022,72.1663331 91.0409998,72.1220002 91.079,72.084 C91.1170002,72.0459998 91.1613331,72.027 91.212,72.027 C91.2373335,71.9889998 91.3133327,71.97 91.44,71.97 C91.769335,71.97 92.0543321,72.0586658 92.295,72.236 C92.5356679,72.4133342 92.656,72.6856648 92.656,73.053 C92.656,73.2430009 92.621167,73.4234991 92.5515,73.5945 C92.481833,73.7655009 92.352001,74.0473314 92.162,74.44 L91.953,74.858 C91.9149998,74.9340004 91.8580004,75.0448326 91.782,75.1905 C91.7059996,75.3361674 91.668,75.4279998 91.668,75.466 C91.9846682,75.2506656 92.3583312,74.9656684 92.789,74.611 C93.4223365,74.1043308 93.9416646,73.7116681 94.347,73.433 C94.7523354,73.1543319 95.049999,73.015 95.24,73.015 C95.4046675,73.015 95.6358318,73.1068324 95.9335,73.2905 C96.2311682,73.4741676 96.4053331,73.6419992 96.456,73.794 C96.456,73.8826671 96.4465001,74.0156658 96.4275,74.193 C96.4084999,74.3703342 96.3926667,74.528666 96.38,74.668 L96.399,75.257 C96.4116667,75.3583338 96.418,75.5103323 96.418,75.713 C96.418,76.1183354 96.3926669,76.4033325 96.342,76.568 C96.3546667,76.5806667 96.3673333,76.5996665 96.38,76.625 C96.3926667,76.6503335 96.399,76.6693333 96.399,76.682 L96.38,76.72 C96.3926667,76.8466673 96.4623327,77.0493319 96.589,77.328 C96.7156673,77.6066681 96.779,77.7586665 96.779,77.784 C96.779,77.923334 96.6871676,78.0784991 96.5035,78.2495 C96.3198324,78.4205009 96.1456675,78.5186665 95.981,78.544 Z M98.66,78.601 C98.6219998,78.5249996 98.5143342,78.4236673 98.337,78.297 C98.1596658,78.1703327 98.071,78.0943335 98.071,78.069 C98.071,78.0183331 98.0425003,77.9455005 97.9855,77.8505 C97.9284997,77.7554995 97.8746669,77.6700004 97.824,77.594 C97.7226662,77.4926662 97.7923321,77.1633361 98.033,76.606 C98.2736679,76.0486639 98.5966646,75.3900038 99.002,74.63 C99.0780004,74.5539996 99.1761661,74.4210009 99.2965,74.231 C99.4168339,74.040999 99.4959998,73.9333335 99.534,73.908 C99.534,73.8573331 99.5529998,73.8098336 99.591,73.7655 C99.6290002,73.7211664 99.6733331,73.699 99.724,73.699 L99.876,73.395 C99.9266669,73.2809994 100.173664,73.0086688 100.617,72.578 C101.060336,72.1473312 101.408665,71.8560008 101.662,71.704 C101.902668,71.5393325 102.162332,71.457 102.441,71.457 C102.745002,71.457 103.004666,71.5456658 103.22,71.723 L103.733,72.16 C104.113002,72.4766682 104.328333,72.6603331 104.379,72.711 L105.082,73.338 L104.759,74.288 C104.644999,74.6300017 104.588,74.9529985 104.588,75.257 C104.588,75.7383357 104.720999,76.1879979 104.987,76.606 C105.050334,76.745334 105.135833,76.8529996 105.2435,76.929 C105.351167,77.0050004 105.493666,77.0556665 105.671,77.081 C105.949668,77.1316669 106.089,77.2709989 106.089,77.499 C106.089,77.7776681 106.038334,77.986666 105.937,78.126 C105.835666,78.265334 105.715334,78.3539998 105.576,78.392 C105.373332,78.4173335 105.234,78.43 105.158,78.43 C104.790665,78.43 104.455002,78.3350009 104.151,78.145 C103.846998,77.954999 103.581001,77.6320023 103.353,77.176 C103.302333,77.0999996 103.235834,76.9606677 103.1535,76.758 C103.071166,76.5553323 103.023667,76.4160004 103.011,76.34 C102.922333,76.4666673 102.776668,76.6313323 102.574,76.834 C101.269327,78.1513399 100.211671,78.81 99.401,78.81 C99.1223319,78.81 98.8753344,78.740334 98.66,78.601 Z M99.705,77.024 C99.9076677,77.0493335 100.30033,76.8213357 100.883,76.34 C100.946334,76.2893331 101.016,76.229167 101.092,76.1595 C101.168,76.089833 101.250333,76.0170004 101.339,75.941 C101.693668,75.6496652 101.969166,75.4058343 102.1655,75.2095 C102.361834,75.0131657 102.561332,74.7756681 102.764,74.497 L103.182,73.813 C103.055333,73.5343319 102.941334,73.3475005 102.84,73.2525 C102.738666,73.1574995 102.637334,73.11 102.536,73.11 C102.282665,73.11 101.966002,73.3348311 101.586,73.7845 C101.205998,74.2341689 100.750003,74.9149954 100.218,75.827 C100.078666,76.0550011 99.9646671,76.2924988 99.876,76.5395 C99.7873329,76.7865012 99.7303335,76.9479996 99.705,77.024 Z M108.483,78.734 C108.254999,78.7846669 107.916169,78.705501 107.4665,78.4965 C107.016831,78.287499 106.716001,78.1006675 106.564,77.936 C106.500666,77.8473329 106.469,77.7776669 106.469,77.727 C106.469,77.6763331 106.488,77.6320002 106.526,77.594 C106.564,77.5559998 106.614666,77.537 106.678,77.537 C106.754,77.537 106.842666,77.4736673 106.944,77.347 C107.045334,77.2203327 107.108667,77.0303346 107.134,76.777 C107.146667,76.6249992 107.178333,76.4761674 107.229,76.3305 C107.279667,76.1848326 107.305,76.0866669 107.305,76.036 C107.317667,75.9979998 107.3335,75.8935009 107.3525,75.7225 C107.3715,75.5514991 107.406333,75.4026673 107.457,75.276 C107.533,74.946665 107.656499,74.4811697 107.8275,73.8795 C107.998501,73.2778303 108.140999,72.8250015 108.255,72.521 C108.280333,72.2929989 108.413332,71.944669 108.654,71.476 C108.894668,70.8299968 109.290497,69.9116726 109.8415,68.721 C110.392503,67.5303274 110.731333,66.8526675 110.858,66.688 C110.959334,66.6119996 111.085999,66.574 111.238,66.574 C111.516668,66.574 111.738333,66.6563325 111.903,66.821 C111.941,66.8590002 111.994833,66.9191663 112.0645,67.0015 C112.134167,67.0838337 112.188,67.1629996 112.226,67.239 C112.264,67.3150004 112.283,67.3846663 112.283,67.448 C112.283,67.5493338 112.238667,67.6506662 112.15,67.752 L111.637,68.569 C111.561,68.7970011 111.396335,69.1769973 111.143,69.709 C110.788332,70.4436703 110.497001,71.1339968 110.269,71.78 C110.180333,71.9826677 110.085334,72.2169987 109.984,72.483 C109.895333,72.7490013 109.832,72.9009998 109.794,72.939 C109.756,73.1290009 109.686334,73.318999 109.585,73.509 C109.483666,73.7243344 109.407667,73.9649987 109.357,74.231 L110.041,73.566 C110.560336,73.0086639 111.016331,72.5938347 111.409,72.3215 C111.801669,72.0491653 112.156332,71.913 112.473,71.913 C112.739001,71.913 113.030332,72.0143323 113.347,72.217 C113.663668,72.4196677 113.872666,72.6413321 113.974,72.882 C114.075334,73.1226679 114.126,73.4203316 114.126,73.775 C114.126,74.1423352 114.069001,74.5159981 113.955,74.896 C113.840999,75.2760019 113.676334,75.6053319 113.461,75.884 C113.334333,76.1120011 113.172834,76.3368322 112.9765,76.5585 C112.780166,76.7801678 112.606001,76.9479994 112.454,77.062 C112.111998,77.3786682 111.890334,77.5749996 111.789,77.651 C111.649666,77.7523338 111.519834,77.837833 111.3995,77.9075 C111.279166,77.977167 111.136667,78.0373331 110.972,78.088 C110.731332,78.2526675 110.405169,78.3824995 109.9935,78.4775 C109.581831,78.5725005 109.078336,78.6579996 108.483,78.734 Z M108.958,77.29 C109.110001,77.29 109.293666,77.2646669 109.509,77.214 C109.724334,77.1633331 109.920666,77.0746673 110.098,76.948 C110.896004,76.5426646 111.494498,76.0676694 111.8935,75.523 C112.292502,74.9783306 112.492,74.4653357 112.492,73.984 C112.492,73.6799985 112.403334,73.528 112.226,73.528 C111.947332,73.528 111.44067,73.8953297 110.706,74.63 C110.363998,74.9466682 110.009335,75.3203312 109.642,75.751 L109.357,76.074 C109.306333,76.1500004 109.230334,76.2513327 109.129,76.378 C109.027666,76.5046673 108.970667,76.6059996 108.958,76.682 C108.907333,76.9100011 108.882,77.0683329 108.882,77.157 C108.882,77.2456671 108.907333,77.29 108.958,77.29 Z M115.247,79.57 C115.056999,79.5066663 114.9145,79.3926675 114.8195,79.228 C114.7245,79.0633325 114.677,78.8226682 114.677,78.506 C114.677,77.9866641 114.727666,77.4800025 114.829,76.986 L114.848,76.834 C114.860667,76.7579996 114.879667,76.6345009 114.905,76.4635 C114.930333,76.2924991 114.949333,76.2449996 114.962,76.321 L115.076,75.808 C115.164667,75.4533316 115.250166,75.1240015 115.3325,74.82 C115.414834,74.5159985 115.481333,74.294334 115.532,74.155 L115.741,73.49 C116.121002,72.2613272 116.475665,71.4316688 116.805,71.001 C116.817667,70.9503331 116.836667,70.9028336 116.862,70.8585 C116.887333,70.8141664 116.906333,70.7666669 116.919,70.716 C116.919,70.5133323 116.957,70.3550006 117.033,70.241 C117.147001,70.050999 117.242,69.8800008 117.318,69.728 L117.394,69.519 L117.926,68.436 C117.964,68.3093327 118.043166,68.1700008 118.1635,68.018 C118.283834,67.8659992 118.407333,67.7646669 118.534,67.714 L118.515,67.695 C118.578334,67.5936662 118.695499,67.5050004 118.8665,67.429 C119.037501,67.3529996 119.186333,67.315 119.313,67.315 C119.477667,67.315 119.610666,67.3656662 119.712,67.467 C119.813334,67.5683338 119.864,67.7076658 119.864,67.885 L119.864,68.075 C119.864,68.1890006 119.8545,68.2776663 119.8355,68.341 C119.8165,68.4043336 119.775334,68.4803329 119.712,68.569 L119.731,68.569 C119.743667,68.5816667 119.734167,68.622833 119.7025,68.6925 C119.670833,68.762167 119.642333,68.8286663 119.617,68.892 C119.528333,69.1200011 119.465,69.2466665 119.427,69.272 C119.338333,69.3860006 119.047002,69.9211619 118.553,70.8775 C118.058998,71.8338381 117.742334,72.4956648 117.603,72.863 L117.527,73.148 L117.489,73.262 C117.349666,73.5660015 117.273667,73.7306665 117.261,73.756 L116.957,74.934 L116.881,75.333 L116.71,75.77 L116.596,76.131 C116.570667,76.1943336 116.5485,76.2766662 116.5295,76.378 C116.5105,76.4793338 116.488333,76.5426665 116.463,76.568 L116.444,76.663 C116.431333,76.7136669 116.387,76.8593321 116.311,77.1 C116.196999,77.4546684 116.114667,77.7491655 116.064,77.9835 C116.013333,78.2178345 115.981667,78.4679987 115.969,78.734 L115.95,78.81 C115.912,79.0886681 115.832834,79.297666 115.7125,79.437 C115.592166,79.576334 115.437001,79.6206669 115.247,79.57 Z M121.593,71.096 C121.555,71.1340002 121.517,71.153 121.479,71.153 C121.428333,71.153 121.346001,71.1150004 121.232,71.039 C121.105333,71.0263333 120.937501,70.9186677 120.7285,70.716 C120.519499,70.5133323 120.415,70.3803336 120.415,70.317 C120.402333,70.1649992 120.415,69.9465014 120.453,69.6615 C120.491,69.3764986 120.563833,69.1200011 120.6715,68.892 C120.779167,68.6639989 120.921666,68.5436667 121.099,68.531 C121.187667,68.5436667 121.307999,68.5721664 121.46,68.6165 C121.612001,68.6608336 121.782999,68.7209996 121.973,68.797 C122.213668,69.2783357 122.334,69.6899983 122.334,70.032 C122.334,70.5386692 122.087002,70.8933323 121.593,71.096 Z M119.845,78.981 C119.540998,78.981 119.278168,78.8226682 119.0565,78.506 C118.834832,78.1893317 118.698667,77.796669 118.648,77.328 C118.698667,76.859331 118.736667,76.5173344 118.762,76.302 C118.901334,75.6813302 119.075499,74.9498375 119.2845,74.1075 C119.493501,73.2651625 119.617,72.7996671 119.655,72.711 C119.718334,72.5969994 119.819666,72.54 119.959,72.54 C120.098334,72.54 120.253499,72.5938328 120.4245,72.7015 C120.595501,72.8091672 120.737999,72.957999 120.852,73.148 C120.953334,73.287334 121.004,73.4456658 121.004,73.623 C121.004,73.8890013 120.877335,74.4463291 120.624,75.295 C120.446666,75.9283365 120.332667,76.3779987 120.282,76.644 C120.231333,76.9100013 120.212333,77.1949985 120.225,77.499 C120.174333,78.0690028 120.123667,78.4616656 120.073,78.677 C120.022333,78.8923344 119.946334,78.9936667 119.845,78.981 Z M128.718,78.544 C127.919996,78.5186665 127.521,78.0690044 127.521,77.195 C127.521,76.9543321 127.54,76.7200011 127.578,76.492 C127.603333,76.2133319 127.616,76.0170006 127.616,75.903 L127.616,75.599 C127.578,75.3456654 127.495667,75.219 127.369,75.219 C127.140999,75.219 126.719836,75.4374978 126.1055,75.8745 C125.491164,76.3115022 124.848337,76.833997 124.177,77.442 C123.974332,77.6573344 123.803334,77.859999 123.664,78.05 C123.537333,78.2146675 123.442334,78.3159998 123.379,78.354 C123.315666,78.3920002 123.214334,78.411 123.075,78.411 C122.897666,78.3856665 122.695001,78.2526679 122.467,78.012 C122.238999,77.7713321 122.087,77.5560009 122.011,77.366 C122.011,77.0113316 122.074333,76.6725016 122.201,76.3495 C122.327667,76.0264984 122.517665,75.6180025 122.771,75.124 C122.885001,74.7439981 123.030666,74.3640019 123.208,73.984 C123.398001,73.5406644 123.534166,73.2018345 123.6165,72.9675 C123.698834,72.7331655 123.752667,72.4893346 123.778,72.236 C123.778,72.2233333 123.774833,72.217 123.7685,72.217 L123.759,72.217 C123.759,72.1663331 123.778,72.1220002 123.816,72.084 C123.854,72.0459998 123.898333,72.027 123.949,72.027 C123.974333,71.9889998 124.050333,71.97 124.177,71.97 C124.506335,71.97 124.791332,72.0586658 125.032,72.236 C125.272668,72.4133342 125.393,72.6856648 125.393,73.053 C125.393,73.2430009 125.358167,73.4234991 125.2885,73.5945 C125.218833,73.7655009 125.089001,74.0473314 124.899,74.44 L124.69,74.858 C124.652,74.9340004 124.595,75.0448326 124.519,75.1905 C124.443,75.3361674 124.405,75.4279998 124.405,75.466 C124.721668,75.2506656 125.095331,74.9656684 125.526,74.611 C126.159336,74.1043308 126.678665,73.7116681 127.084,73.433 C127.489335,73.1543319 127.786999,73.015 127.977,73.015 C128.141667,73.015 128.372832,73.1068324 128.6705,73.2905 C128.968168,73.4741676 129.142333,73.6419992 129.193,73.794 C129.193,73.8826671 129.1835,74.0156658 129.1645,74.193 C129.1455,74.3703342 129.129667,74.528666 129.117,74.668 L129.136,75.257 C129.148667,75.3583338 129.155,75.5103323 129.155,75.713 C129.155,76.1183354 129.129667,76.4033325 129.079,76.568 C129.091667,76.5806667 129.104333,76.5996665 129.117,76.625 C129.129667,76.6503335 129.136,76.6693333 129.136,76.682 L129.117,76.72 C129.129667,76.8466673 129.199333,77.0493319 129.326,77.328 C129.452667,77.6066681 129.516,77.7586665 129.516,77.784 C129.516,77.923334 129.424168,78.0784991 129.2405,78.2495 C129.056832,78.4205009 128.882667,78.5186665 128.718,78.544 Z M132.556,82.705 C132.188665,82.705 131.821335,82.6068343 131.454,82.4105 C131.086665,82.2141657 130.782668,81.9703348 130.542,81.679 C130.301332,81.3876652 130.181,81.1216679 130.181,80.881 C130.181,80.6403321 130.231666,80.4661672 130.333,80.3585 C130.434334,80.2508328 130.560999,80.197 130.713,80.197 C130.827001,80.197 130.947333,80.2444995 131.074,80.3395 C131.200667,80.4345005 131.346333,80.5706658 131.511,80.748 C131.675667,80.9126675 131.821333,81.0424995 131.948,81.1375 C132.074667,81.2325005 132.194999,81.28 132.309,81.28 C132.739669,81.28 133.068999,81.0076694 133.297,80.463 C133.525001,79.9183306 133.759332,79.1456717 134,78.145 L134.266,77.005 L134.304,76.872 C134.304,76.8593333 134.297667,76.8561666 134.285,76.8625 C134.272333,76.8688334 134.259667,76.8656667 134.247,76.853 C134.044332,77.0050008 133.645336,77.175999 133.05,77.366 C132.454664,77.5560009 131.954335,77.651 131.549,77.651 C131.308332,77.651 131.096168,77.5243346 130.9125,77.271 C130.728832,77.0176654 130.637,76.6883354 130.637,76.283 L130.637,76.169 C130.662333,76.1183331 130.807999,75.7383369 131.074,75.029 C131.340001,74.3196631 131.536333,73.9776665 131.663,74.003 C131.701,74.003 131.761166,73.9301674 131.8435,73.7845 C131.925834,73.6388326 131.967,73.5406669 131.967,73.49 C131.979667,73.4519998 132.052499,73.3791672 132.1855,73.2715 C132.318501,73.1638328 132.423,73.0783336 132.499,73.015 L132.993,72.635 C133.449002,72.2169979 133.854332,71.903501 134.209,71.6945 C134.563668,71.485499 134.886665,71.3683335 135.178,71.343 L135.368,71.362 C135.406,71.362 135.478833,71.3651666 135.5865,71.3715 C135.694167,71.3778334 135.887332,71.4316662 136.166,71.533 C136.444668,71.6470006 136.729665,71.9256644 137.021,72.369 C137.312335,72.8123355 137.470667,73.198665 137.496,73.528 C137.470667,73.8193348 137.407334,74.1011653 137.306,74.3735 C137.204666,74.6458347 137.103334,74.782 137.002,74.782 C136.824666,74.782 136.691667,74.8263329 136.603,74.915 C136.514333,75.0036671 136.432,75.1493323 136.356,75.352 C136.216666,75.6433348 136.121667,75.8206663 136.071,75.884 L135.767,77.347 L135.501,78.563 C135.348999,79.1583363 135.190667,79.6649979 135.026,80.083 C134.962666,80.5390023 134.794835,80.966498 134.5225,81.3655 C134.250165,81.764502 133.933502,82.0843321 133.5725,82.325 C133.211498,82.5656679 132.872668,82.6923333 132.556,82.705 Z M132.499,76.15 C132.739668,76.15 133.103831,76.0518343 133.5915,75.8555 C134.079169,75.6591657 134.379999,75.4786675 134.494,75.314 C134.557334,75.2379996 134.680832,75.070168 134.8645,74.8105 C135.048168,74.550832 135.253999,74.351334 135.482,74.212 C135.558,74.1739998 135.630833,74.1043338 135.7005,74.003 C135.770167,73.9016662 135.805,73.8066671 135.805,73.718 L135.805,73.68 C135.792333,73.6293331 135.754334,73.5406673 135.691,73.414 C135.627666,73.2873327 135.535834,73.1670006 135.4155,73.053 C135.295166,72.9389994 135.159001,72.882 135.007,72.882 C134.880333,72.9073335 134.585836,73.1353312 134.1235,73.566 C133.661164,73.9966688 133.230502,74.4526643 132.8315,74.934 C132.432498,75.4153357 132.233,75.750999 132.233,75.941 C132.233,76.080334 132.321666,76.15 132.499,76.15 Z M152.984781,67.025591 C152.992252,67.0294585 153.000491,67.0340948 153.0095,67.0395 C153.041167,67.0585001 153.076,67.0869998 153.114,67.125 C153.215334,67.1756669 153.266,67.3023323 153.266,67.505 C153.266,67.6570008 153.240667,67.8089992 153.19,67.961 C153.177333,68.0370004 153.148834,68.0908332 153.1045,68.1225 C153.060166,68.1541668 152.955667,68.1731666 152.791,68.1795 C152.626333,68.1858334 152.411001,68.1826667 152.145,68.17 C151.663664,68.1066663 151.264668,68.075 150.948,68.075 C150.504664,68.075 149.820671,68.1383327 148.896,68.265 C148.667999,68.2776667 148.455834,68.3093331 148.2595,68.36 C148.063166,68.4106669 147.939667,68.4423333 147.889,68.455 C147.825666,68.455 147.730667,68.549999 147.604,68.74 C147.477333,68.9300009 147.363334,69.1706652 147.262,69.462 C147.186,69.5760006 146.951669,70.1269951 146.559,71.115 L146.103,72.179 C146.255001,72.2296669 146.546331,72.255 146.977,72.255 C147.547003,72.255 148.376661,72.2043338 149.466,72.103 C149.960002,72.0016662 150.295666,71.9636665 150.473,71.989 C150.587001,72.0016667 150.685166,72.0808326 150.7675,72.2265 C150.849834,72.3721674 150.891,72.5336658 150.891,72.711 C150.891,72.8376673 150.865667,72.9516662 150.815,73.053 C150.764333,73.1543338 150.694667,73.2303331 150.606,73.281 C150.339999,73.4456675 149.789004,73.5723329 148.953,73.661 C148.395664,73.7116669 147.629338,73.737 146.654,73.737 C146.134664,73.737 145.824334,73.7243335 145.723,73.699 C145.697667,73.7116667 145.662834,73.7496663 145.6185,73.813 C145.574166,73.8763336 145.552,73.9523329 145.552,74.041 C145.323999,74.4590021 145.004169,75.1999947 144.5925,76.264 C144.180831,77.3280053 143.975,77.9739989 143.975,78.202 C143.886333,78.4300011 143.816667,78.6896652 143.766,78.981 C143.753333,79.0316669 143.734333,79.1013329 143.709,79.19 C143.683667,79.2786671 143.658333,79.3356665 143.633,79.361 C143.595,79.5510009 143.468334,79.646 143.253,79.646 C143.075666,79.646 142.936334,79.5890006 142.835,79.475 C142.404331,79.2723323 142.189,78.9683354 142.189,78.563 C142.189,78.4363327 142.208,78.3096673 142.246,78.183 C142.347334,77.7269977 142.534165,77.0746709 142.8065,76.226 C143.078835,75.3773291 143.322666,74.7376688 143.538,74.307 C143.626667,74.1549992 143.696333,73.9966675 143.747,73.832 C143.797667,73.6673325 143.829333,73.5596669 143.842,73.509 C143.905334,73.2809989 143.943333,73.1480002 143.956,73.11 L143.937,72.92 C143.937,72.8693331 143.949667,72.8186669 143.975,72.768 C144.000333,72.7173331 144.044666,72.6603336 144.108,72.597 C144.285334,72.4449992 144.475332,72.1473355 144.678,71.704 L145.4,69.633 L145.628,68.987 C145.640667,68.9363331 145.666,68.8476673 145.704,68.721 C145.742,68.5943327 145.761,68.5056669 145.761,68.455 C145.761,68.4043331 145.748333,68.379 145.723,68.379 C145.621666,68.4043335 145.419002,68.4233333 145.115,68.436 C144.962999,68.4613335 144.849,68.4771666 144.773,68.4835 C144.697,68.4898334 144.64,68.4993333 144.602,68.512 L144.469,68.512 C144.228332,68.512 144.108,68.4233342 144.108,68.246 C144.146,68.0179989 144.225166,67.8026677 144.3455,67.6 C144.465834,67.3973323 144.614666,67.2896667 144.792,67.277 L145.533,67.106 C145.647001,67.0806665 145.805332,67.068 146.008,67.068 C146.185334,67.068 146.368999,67.0869998 146.559,67.125 C146.711001,67.0236662 146.793333,66.9350004 146.806,66.859 C146.856667,66.6436656 146.970666,66.4726673 147.148,66.346 C147.325334,66.2193327 147.508999,66.156 147.699,66.156 C147.851001,66.156 147.977666,66.1971663 148.079,66.2795 C148.180334,66.3618337 148.231,66.4853325 148.231,66.65 C148.231,66.7260004 148.224667,66.7829998 148.212,66.821 L148.212,66.8875 C148.212,66.9191668 148.25,66.935 148.326,66.935 C148.452667,66.935 148.82633,66.865334 149.447,66.726 C149.548334,66.7133333 149.722499,66.6975001 149.9695,66.6785 C150.216501,66.6594999 150.422333,66.65 150.587,66.65 C150.815001,66.65 150.998666,66.6689998 151.138,66.707 C151.252001,66.6816665 151.353333,66.669 151.442,66.669 C151.530667,66.669 151.606666,66.6626667 151.67,66.65 C151.885334,66.65 152.018333,66.6310002 152.069,66.593 C152.183001,66.6183335 152.312833,66.6404999 152.4585,66.6595 C152.604167,66.6785001 152.708666,66.7006665 152.772,66.726 C152.835334,66.7513335 152.892333,66.7829998 152.943,66.821 C152.981,66.8716669 153,66.9159998 153,66.954 C153,66.9880101 152.994927,67.0118736 152.984781,67.025591 Z M154.653,71.096 C154.500999,71.096 154.317334,71.026334 154.102,70.887 C153.886666,70.747666 153.699834,70.5671678 153.5415,70.3455 C153.383166,70.1238322 153.304,69.8990011 153.304,69.671 C153.304,69.5949996 153.436999,69.3606686 153.703,68.968 C153.880334,68.7273321 153.969,68.5816669 153.969,68.531 C154.057667,68.531 154.171666,68.5499998 154.311,68.588 C154.450334,68.6260002 154.570666,68.6703331 154.672,68.721 C154.748,68.8983342 154.899999,69.1263319 155.128,69.405 C155.280001,69.5950009 155.390833,69.7533327 155.4605,69.88 C155.530167,70.0066673 155.565,70.139666 155.565,70.279 C155.565,70.5576681 155.492167,70.7634993 155.3465,70.8965 C155.200833,71.0295007 154.969668,71.096 154.653,71.096 Z M152.069,78.373 C152.031,78.373 151.939167,78.3413336 151.7935,78.278 C151.647833,78.2146663 151.549667,78.1703335 151.499,78.145 C151.499,78.1069998 151.483167,78.0405005 151.4515,77.9455 C151.419833,77.8504995 151.404,77.7903335 151.404,77.765 C151.289999,77.7143331 151.198167,77.6288339 151.1285,77.5085 C151.058833,77.3881661 151.043,77.2646673 151.081,77.138 C151.258334,76.8339985 151.578164,76.1341721 152.0405,75.0385 C152.502836,73.9428279 152.759333,73.3126675 152.81,73.148 C152.81,72.8693319 152.898666,72.6730006 153.076,72.559 C153.164667,72.4956663 153.253333,72.464 153.342,72.464 C153.557334,72.464 153.759999,72.6096652 153.95,72.901 C154.140001,73.1923348 154.235,73.5343314 154.235,73.927 C154.235,74.0790008 154.092501,74.5128298 153.8075,75.2285 C153.522499,75.9441702 153.202668,76.6629964 152.848,77.385 C152.645332,77.7903354 152.4965,78.0563327 152.4015,78.183 C152.3065,78.3096673 152.195667,78.373 152.069,78.373 Z M161.132,78.43 C160.941999,78.43 160.752001,78.3793338 160.562,78.278 C160.371999,78.1766662 160.220001,78.0246677 160.106,77.822 L160.011,77.632 C159.858999,77.2013312 159.783,76.7833354 159.783,76.378 L159.783,75.542 C159.783,75.402666 159.770333,75.333 159.745,75.333 C159.643666,75.333 159.206671,75.7446625 158.434,76.568 C157.889331,77.1380028 157.417502,77.5781651 157.0185,77.8885 C156.619498,78.1988349 156.344001,78.354 156.192,78.354 C156.141333,78.354 156.021001,78.3065005 155.831,78.2115 C155.640999,78.1164995 155.520667,78.0436669 155.47,77.993 C155.381333,77.9043329 155.324333,77.7966673 155.299,77.67 C155.273667,77.5433327 155.261,77.3026684 155.261,76.948 C155.261,76.5426646 155.343333,76.0835026 155.508,75.5705 C155.672667,75.0574974 155.951331,74.3703376 156.344,73.509 C156.445334,73.3316658 156.546666,73.1163346 156.648,72.863 C156.939335,72.20433 157.211665,71.7483346 157.465,71.495 C157.566334,71.495 157.636,71.5013333 157.674,71.514 C157.838667,71.5266667 158.031832,71.602666 158.2535,71.742 C158.475168,71.881334 158.611333,72.0649989 158.662,72.293 C158.662,72.5083344 158.630334,72.7236656 158.567,72.939 C158.503666,73.1543344 158.358001,73.4203317 158.13,73.737 C157.990666,73.9270009 157.807001,74.3386635 157.579,74.972 C157.515666,75.0733338 157.430167,75.228499 157.3225,75.4375 C157.214833,75.646501 157.161,75.7636665 157.161,75.789 C157.173667,75.8016667 157.211666,75.773167 157.275,75.7035 C157.338334,75.633833 157.401666,75.5673336 157.465,75.504 L157.978,74.991 C158.978672,73.9903283 159.751331,73.4773335 160.296,73.452 C160.574668,73.452 160.821666,73.5976652 161.037,73.889 C161.252334,74.1803348 161.36,74.5286646 161.36,74.934 C161.36,75.0100004 161.347333,75.2253316 161.322,75.58 L161.322,76.663 C161.613335,76.5869996 161.834999,76.5173336 161.987,76.454 C162.303668,76.3399994 162.632998,76.2703335 162.975,76.245 C162.949667,76.4603344 162.832501,76.7453316 162.6235,77.1 C162.414499,77.4546684 162.170668,77.7649987 161.892,78.031 C161.613332,78.2970013 161.360001,78.43 161.132,78.43 Z M167.383,79.798 C167.332333,79.8486669 167.281667,79.874 167.231,79.874 C167.167666,79.874 167.060001,79.8360004 166.908,79.76 C166.692666,79.7093331 166.505834,79.6048341 166.3475,79.4465 C166.189166,79.2881659 166.11,79.1076677 166.11,78.905 C166.11,78.8543331 166.135333,78.7530008 166.186,78.601 C166.300001,78.3856656 166.591331,77.3280095 167.06,75.428 L167.383,74.174 C167.383,74.1613333 167.408333,73.9650019 167.459,73.585 C167.497,73.394999 167.554,73.0466692 167.63,72.54 C167.782001,72.2486652 167.8865,71.9288351 167.9435,71.5805 C168.0005,71.2321649 168.035333,71.0326669 168.048,70.982 C168.136667,70.6273316 168.2,70.4056671 168.238,70.317 L168.409,69.652 L168.523,69.215 C168.611667,68.8983317 168.656,68.6956671 168.656,68.607 L168.656,68.303 L167.953,68.303 L167.649,68.322 C167.446332,68.322 167.288001,68.3156667 167.174,68.303 L166.509,68.284 C165.913664,68.2586665 165.514668,68.1985005 165.312,68.1035 C165.109332,68.0084995 165.001667,67.8216681 164.989,67.543 C164.938333,67.2896654 165.064998,67.0901674 165.369,66.9445 C165.673002,66.7988326 166.293662,66.7386665 167.231,66.764 C167.408334,66.7513333 167.648998,66.745 167.953,66.745 C168.257002,66.745 168.503999,66.7513333 168.694,66.764 C168.884001,66.7766667 168.991667,66.783 169.017,66.783 C169.055,66.7449998 169.086667,66.6943336 169.112,66.631 C169.137333,66.5676663 169.156333,66.5170002 169.169,66.479 C169.169,66.2636656 169.238666,66.1306669 169.378,66.08 C169.454,65.9153325 169.612332,65.833 169.853,65.833 C169.992334,65.833 170.131666,65.8646663 170.271,65.928 C170.410334,65.9913336 170.518,66.0799994 170.594,66.194 C170.619333,66.2573336 170.632,66.3713325 170.632,66.536 C170.632,66.7006675 170.67,66.8209996 170.746,66.897 C170.796667,66.8463331 170.961332,66.8146667 171.24,66.802 C171.518668,66.7893333 171.714999,66.7766667 171.829,66.764 C172.069668,66.764 172.316665,66.7545001 172.57,66.7355 C172.823335,66.7164999 172.994333,66.707 173.083,66.707 C173.197001,66.6436663 173.374332,66.612 173.615,66.612 C173.729001,66.612 173.887332,66.6246665 174.09,66.65 C174.343335,66.65 174.526999,66.7038328 174.641,66.8115 C174.755001,66.9191672 174.856333,67.042666 174.945,67.182 C174.945,67.321334 174.976666,67.4226663 175.04,67.486 C175.090667,67.5240002 175.116,67.5619998 175.116,67.6 C175.116,67.6253335 175.090667,67.6823329 175.04,67.771 C174.951333,67.8850006 174.723335,67.942 174.356,67.942 L173.957,67.961 C173.678332,67.9863335 173.475667,67.999 173.349,67.999 C172.791664,68.1130006 172.14567,68.1826665 171.411,68.208 C170.891664,68.208 170.632,68.2586662 170.632,68.36 C170.556,68.36 170.410334,68.7716625 170.195,69.595 C170.119,69.8990015 170.039834,70.1744988 169.9575,70.4215 C169.875166,70.6685012 169.808667,70.8363329 169.758,70.925 C169.796,70.9756669 169.815,71.0326663 169.815,71.096 C169.815,71.1593336 169.777,71.2986656 169.701,71.514 C169.663,71.653334 169.618667,71.7894993 169.568,71.9225 C169.517333,72.0555007 169.492,72.1599996 169.492,72.236 C169.479333,72.2866669 169.4445,72.4101657 169.3875,72.6065 C169.3305,72.8028343 169.283,73.0213321 169.245,73.262 C169.181666,73.870003 169.099334,74.2246662 168.998,74.326 C168.985333,74.3513335 168.956834,74.4019996 168.9125,74.478 C168.868166,74.5540004 168.846,74.6363329 168.846,74.725 C168.846,74.9023342 168.801667,75.2158311 168.713,75.6655 C168.624333,76.1151689 168.554667,76.3589998 168.504,76.397 C168.542,76.397 168.561,76.4349996 168.561,76.511 C168.561,76.5996671 168.523,76.7326658 168.447,76.91 C168.447,77.0113338 168.428,77.131666 168.39,77.271 C168.352,77.410334 168.333,77.5053331 168.333,77.556 C168.206333,77.9106684 168.029001,78.3603306 167.801,78.905 C167.572999,79.4496694 167.433667,79.7473331 167.383,79.798 Z M173.444,79 C172.721996,79 172.139336,78.7973354 171.696,78.392 C171.252664,77.9866646 171.031,77.4103371 171.031,76.663 C171.031,76.3716652 171.05,76.0486684 171.088,75.694 C171.113333,75.3899985 171.236832,74.9720027 171.4585,74.44 C171.680168,73.9079973 171.984165,73.3886692 172.3705,72.882 C172.756835,72.3753308 173.209664,72.0016679 173.729,71.761 C173.969668,71.6469994 174.172333,71.5678336 174.337,71.5235 C174.501667,71.4791664 174.691666,71.457 174.907,71.457 C175.426336,71.457 175.847498,71.551999 176.1705,71.742 C176.493502,71.9320009 176.721499,72.1473321 176.8545,72.388 C176.987501,72.6286679 177.054,72.8376658 177.054,73.015 L177.054,73.167 C177.054,73.3190008 176.965334,73.5976646 176.788,74.003 C176.610666,74.4083354 176.328835,74.7883316 175.9425,75.143 C175.556165,75.4976684 175.059003,75.6939998 174.451,75.732 C174.146998,75.732 173.852501,75.7035003 173.5675,75.6465 C173.282499,75.5894997 173.102,75.561 173.026,75.561 C172.835999,75.561 172.715667,75.630666 172.665,75.77 C172.614333,75.909334 172.589,76.143665 172.589,76.473 C172.627,76.8276684 172.725166,77.074666 172.8835,77.214 C173.041834,77.353334 173.272998,77.423 173.577,77.423 C173.729001,77.423 173.906332,77.3786671 174.109,77.29 C174.311668,77.1886662 174.552332,77.0303344 174.831,76.815 C174.983001,76.6883327 175.103333,76.5996669 175.192,76.549 C175.280667,76.4983331 175.388333,76.473 175.515,76.473 C175.629001,76.473 175.761999,76.5489992 175.914,76.701 C176.066001,76.8530008 176.148333,76.998666 176.161,77.138 C176.135667,77.2900008 175.996335,77.5179985 175.743,77.822 C175.489665,78.1260015 175.160335,78.3983321 174.755,78.639 C174.349665,78.8796679 173.912669,79 173.444,79 Z M174.109,74.421 C174.349668,74.421 174.514333,74.3956669 174.603,74.345 C174.729667,74.2816663 174.922832,74.120168 175.1825,73.8605 C175.442168,73.600832 175.578333,73.4203338 175.591,73.319 C175.591,73.1923327 175.537167,73.0878337 175.4295,73.0055 C175.321833,72.9231663 175.173001,72.8693335 174.983,72.844 L174.774,72.844 C174.609333,72.844 174.371835,72.9801653 174.0615,73.2525 C173.751165,73.5248347 173.482001,73.8383316 173.254,74.193 C173.266667,74.2563336 173.361666,74.3101664 173.539,74.3545 C173.716334,74.3988336 173.906332,74.421 174.109,74.421 Z M179.752,79.076 C179.599999,79.1013335 179.479667,79.114 179.391,79.114 C178.871664,79.114 178.412502,78.9461683 178.0135,78.6105 C177.614498,78.2748317 177.415,77.8473359 177.415,77.328 L177.396,77.024 C177.396,76.4286637 177.528999,75.7383373 177.795,74.953 C178.061001,74.1676627 178.390331,73.5280025 178.783,73.034 C179.099668,72.6666648 179.371999,72.3690011 179.6,72.141 C179.828001,71.9129989 180.036999,71.7610004 180.227,71.685 C180.391667,71.6216663 180.600665,71.5646669 180.854,71.514 C181.107335,71.4633331 181.297333,71.438 181.424,71.438 C181.677335,71.5013336 181.914832,71.5899994 182.1365,71.704 C182.358168,71.8180006 182.469,71.944666 182.469,72.084 L182.564,72.179 C182.652667,72.179 182.757166,72.3183319 182.8775,72.597 C182.997834,72.8756681 183.058,73.1289989 183.058,73.357 C183.058,73.4710006 183.039,73.5659996 183.001,73.642 C182.950333,73.8826679 182.852167,74.1169989 182.7065,74.345 C182.560833,74.5730011 182.437334,74.687 182.336,74.687 C182.196666,74.687 182.127,74.7249996 182.127,74.801 C182.127,74.8643336 182.051001,74.896 181.899,74.896 C181.772333,74.896 181.639334,74.8675003 181.5,74.8105 C181.360666,74.7534997 181.278333,74.6806671 181.253,74.592 C181.253,74.5286663 181.303666,74.2753355 181.405,73.832 C181.443,73.641999 181.462,73.4836673 181.462,73.357 C181.462,73.1289989 181.386001,73.015 181.234,73.015 C181.196,73.015 181.101001,73.0403331 180.949,73.091 C180.619665,73.2683342 180.356834,73.4741655 180.1605,73.7085 C179.964166,73.9428345 179.790001,74.2626646 179.638,74.668 C179.485999,75.0733354 179.308668,75.6623295 179.106,76.435 C179.068,76.5870008 179.049,76.7263327 179.049,76.853 C179.049,77.0050008 179.068,77.1284995 179.106,77.2235 C179.144,77.3185005 179.182,77.3723333 179.22,77.385 C179.283334,77.4103335 179.397333,77.423 179.562,77.423 C179.878668,77.423 180.131999,77.3660006 180.322,77.252 C180.550001,77.1253327 180.771666,76.9828341 180.987,76.8245 C181.202334,76.6661659 181.335333,76.5680002 181.386,76.53 C181.411333,76.5046665 181.462,76.4318339 181.538,76.3115 C181.614,76.1911661 181.696333,76.1120002 181.785,76.074 C181.861,75.9599994 181.955999,75.8903335 182.07,75.865 C182.184001,75.8396665 182.297999,75.827 182.412,75.827 L182.64,75.827 C182.804667,75.8776669 182.962999,75.9916658 183.115,76.169 C183.267001,76.3463342 183.292334,76.4603331 183.191,76.511 C183.153,76.511 183.127667,76.5236665 183.115,76.549 C183.102333,76.5743335 183.096,76.5933333 183.096,76.606 C183.121333,76.6693336 183.020001,76.8371653 182.792,77.1095 C182.563999,77.3818347 182.310668,77.6414988 182.032,77.8885 C181.753332,78.1355012 181.563334,78.259 181.462,78.259 C181.411333,78.259 181.367,78.2653333 181.329,78.278 C181.291,78.2906667 181.272,78.3223331 181.272,78.373 C181.272,78.4236669 181.078835,78.5408324 180.6925,78.7245 C180.306165,78.9081676 179.992668,79.0253331 179.752,79.076 Z M190.468,78.696 C190.189332,78.8226673 189.948668,78.886 189.746,78.886 C189.378665,78.886 189.081001,78.7403348 188.853,78.449 C188.624999,78.1576652 188.511,77.7333361 188.511,77.176 C188.511,76.6186639 188.618666,76.0170032 188.834,75.371 C188.872,75.2823329 188.922666,75.1746673 188.986,75.048 C189.049334,74.9213327 189.062,74.858 189.024,74.858 C188.960666,74.858 188.846667,74.9403325 188.682,75.105 C188.06133,75.6623361 187.545169,76.2418303 187.1335,76.8435 C186.721831,77.4451697 186.516,77.910665 186.516,78.24 C186.516,78.379334 186.462167,78.4869996 186.3545,78.563 C186.246833,78.6390004 186.123334,78.677 185.984,78.677 C185.895333,78.677 185.813,78.6580002 185.737,78.62 C185.458332,78.4553325 185.230334,78.2241682 185.053,77.9265 C184.875666,77.6288318 184.806,77.2646688 184.844,76.834 C184.894667,75.9599956 184.986499,75.1905033 185.1195,74.5255 C185.252501,73.8604967 185.508998,72.9136728 185.889,71.685 C185.901667,71.6469998 186.021999,71.324003 186.25,70.716 C186.642669,69.6013278 186.864333,68.9933338 186.915,68.892 C187.003667,68.8033329 187.133499,68.5278356 187.3045,68.0655 C187.475501,67.6031644 187.561,67.3213338 187.561,67.22 C187.561,67.1186662 187.5895,67.0205005 187.6465,66.9255 C187.7035,66.8304995 187.738333,66.7703335 187.751,66.745 C187.890334,66.4283317 188.010666,66.27 188.112,66.27 C188.226001,66.27 188.406499,66.3428326 188.6535,66.4885 C188.900501,66.6341674 189.043,66.7703327 189.081,66.897 C189.182334,67.0996677 189.233,67.2896658 189.233,67.467 C189.233,67.6570009 189.182334,67.881832 189.081,68.1415 C188.979666,68.401168 188.808668,68.7589977 188.568,69.215 C188.200665,69.9496703 187.858668,70.7919952 187.542,71.742 C187.389999,72.1473354 187.206334,72.7236629 186.991,73.471 C186.775666,74.2183371 186.668,74.661666 186.668,74.801 C186.668,74.8896671 186.712333,74.934 186.801,74.934 C186.902334,74.934 187.009999,74.8580008 187.124,74.706 C187.162,74.6299996 187.244333,74.5350006 187.371,74.421 C187.497667,74.3069994 187.599,74.2056671 187.675,74.117 C187.941001,73.787665 188.244998,73.458335 188.587,73.129 C188.929002,72.799665 189.188666,72.635 189.366,72.635 C189.822002,72.635 190.163999,72.9199971 190.392,73.49 C190.442667,73.5406669 190.480667,73.5913331 190.506,73.642 C190.531333,73.6926669 190.556667,73.7306665 190.582,73.756 C190.645334,73.8193336 190.677,73.9776654 190.677,74.231 C190.677,74.6616688 190.575668,75.180997 190.373,75.789 C190.233666,76.3463361 190.164,76.7263323 190.164,76.929 C190.164,77.0936675 190.208333,77.176 190.297,77.176 C190.335,77.1506665 190.410999,77.1063336 190.525,77.043 C190.639001,76.9796663 190.771999,76.9036671 190.924,76.815 C191.202668,76.6503325 191.424333,76.568 191.589,76.568 C191.715667,76.568 191.810666,76.602833 191.874,76.6725 C191.937334,76.742167 191.969,76.8276662 191.969,76.929 C191.969,77.0176671 191.927834,77.1506658 191.8455,77.328 C191.763166,77.5053342 191.722,77.6066665 191.722,77.632 L191.722,77.727 C191.722,77.7776669 191.551002,77.9423319 191.209,78.221 C190.866998,78.4996681 190.620001,78.6579998 190.468,78.696 Z M194.496,75.732 C194.242665,75.732 194.021001,75.7003336 193.831,75.637 C193.514332,75.637 193.286334,75.5103346 193.147,75.257 C193.083666,75.1809996 193.052,75.0986671 193.052,75.01 C193.052,74.7946656 193.406663,74.6490004 194.116,74.573 C194.914004,74.3956658 195.800662,74.307 196.776,74.307 C197.384003,74.307 197.827332,74.4399987 198.106,74.706 C198.220001,74.8200006 198.277,74.9529992 198.277,75.105 C198.277,75.244334 198.216834,75.3583329 198.0965,75.447 C197.976166,75.5356671 197.827334,75.5673335 197.65,75.542 L196.32,75.637 C196.256666,75.637 196.035002,75.6528332 195.655,75.6845 C195.274998,75.7161668 194.888669,75.732 194.496,75.732 Z M199.816,78.601 C199.778,78.5249996 199.670334,78.4236673 199.493,78.297 C199.315666,78.1703327 199.227,78.0943335 199.227,78.069 C199.227,78.0183331 199.1985,77.9455005 199.1415,77.8505 C199.0845,77.7554995 199.030667,77.6700004 198.98,77.594 C198.878666,77.4926662 198.948332,77.1633361 199.189,76.606 C199.429668,76.0486639 199.752665,75.3900038 200.158,74.63 C200.234,74.5539996 200.332166,74.4210009 200.4525,74.231 C200.572834,74.040999 200.652,73.9333335 200.69,73.908 C200.69,73.8573331 200.709,73.8098336 200.747,73.7655 C200.785,73.7211664 200.829333,73.699 200.88,73.699 L201.032,73.395 C201.082667,73.2809994 201.329664,73.0086688 201.773,72.578 C202.216336,72.1473312 202.564665,71.8560008 202.818,71.704 C203.058668,71.5393325 203.318332,71.457 203.597,71.457 C203.901002,71.457 204.160666,71.5456658 204.376,71.723 L204.889,72.16 C205.269002,72.4766682 205.484333,72.6603331 205.535,72.711 L206.238,73.338 L205.915,74.288 C205.800999,74.6300017 205.744,74.9529985 205.744,75.257 C205.744,75.7383357 205.876999,76.1879979 206.143,76.606 C206.206334,76.745334 206.291833,76.8529996 206.3995,76.929 C206.507167,77.0050004 206.649666,77.0556665 206.827,77.081 C207.105668,77.1316669 207.245,77.2709989 207.245,77.499 C207.245,77.7776681 207.194334,77.986666 207.093,78.126 C206.991666,78.265334 206.871334,78.3539998 206.732,78.392 C206.529332,78.4173335 206.39,78.43 206.314,78.43 C205.946665,78.43 205.611002,78.3350009 205.307,78.145 C205.002998,77.954999 204.737001,77.6320023 204.509,77.176 C204.458333,77.0999996 204.391834,76.9606677 204.3095,76.758 C204.227166,76.5553323 204.179667,76.4160004 204.167,76.34 C204.078333,76.4666673 203.932668,76.6313323 203.73,76.834 C202.425327,78.1513399 201.367671,78.81 200.557,78.81 C200.278332,78.81 200.031334,78.740334 199.816,78.601 Z M200.861,77.024 C201.063668,77.0493335 201.45633,76.8213357 202.039,76.34 C202.102334,76.2893331 202.172,76.229167 202.248,76.1595 C202.324,76.089833 202.406333,76.0170004 202.495,75.941 C202.849668,75.6496652 203.125166,75.4058343 203.3215,75.2095 C203.517834,75.0131657 203.717332,74.7756681 203.92,74.497 L204.338,73.813 C204.211333,73.5343319 204.097334,73.3475005 203.996,73.2525 C203.894666,73.1574995 203.793334,73.11 203.692,73.11 C203.438665,73.11 203.122002,73.3348311 202.742,73.7845 C202.361998,74.2341689 201.906003,74.9149954 201.374,75.827 C201.234666,76.0550011 201.120667,76.2924988 201.032,76.5395 C200.943333,76.7865012 200.886333,76.9479996 200.861,77.024 Z M209.183,79.019 C208.980332,78.9809998 208.752335,78.8195014 208.499,78.5345 C208.245665,78.2494986 208.087334,78.0056677 208.024,77.803 C208.024,77.7776665 208.011333,77.7491668 207.986,77.7175 C207.960667,77.6858332 207.941667,77.6636667 207.929,77.651 C207.878333,77.6129998 207.853,77.4040019 207.853,77.024 C207.853,76.7199985 207.868833,76.403335 207.9005,76.074 C207.932167,75.744665 207.973333,75.4786677 208.024,75.276 L208.366,74.269 L208.632,73.509 L209.145,72.407 L208.385,72.198 C208.296333,72.1853333 208.2235,72.1410004 208.1665,72.065 C208.1095,71.9889996 208.081,71.9193336 208.081,71.856 C208.081,71.7546662 208.134833,71.6090009 208.2425,71.419 C208.350167,71.228999 208.435666,71.134 208.499,71.134 C208.537,71.1466667 208.638333,71.153 208.803,71.153 C209.183002,71.153 209.467999,71.1340002 209.658,71.096 C209.784667,71.0453331 209.873333,70.9440008 209.924,70.792 C209.987334,70.652666 210.050666,70.5355005 210.114,70.4405 C210.177334,70.3454995 210.240666,70.2410006 210.304,70.127 C210.342,70.0509996 210.402166,69.9338341 210.4845,69.7755 C210.566834,69.6171659 210.671333,69.4366677 210.798,69.234 C210.823333,69.1959998 210.880333,69.1041674 210.969,68.9585 C211.057667,68.8128326 211.165333,68.6893338 211.292,68.588 C211.368,68.5246663 211.469333,68.4708336 211.596,68.4265 C211.722667,68.3821664 211.849333,68.36 211.976,68.36 C212.204001,68.36 212.387666,68.4233327 212.527,68.55 C212.641001,68.7273342 212.698,68.8603329 212.698,68.949 C212.698,69.0503338 212.647334,69.1833325 212.546,69.348 C212.47,69.5000008 212.343334,69.7026654 212.166,69.956 C212.013999,70.1840011 211.9,70.367666 211.824,70.507 C211.697333,70.6716675 211.634,70.7983329 211.634,70.887 C211.634,70.9756671 211.716333,71.02 211.881,71.02 C212.058334,71.02 212.355998,70.9820004 212.774,70.906 C212.837334,70.8933333 212.925999,70.887 213.04,70.887 C213.344002,70.887 213.559333,70.9756658 213.686,71.153 C213.812667,71.3303342 213.876,71.5519987 213.876,71.818 C213.876,71.9953342 213.815834,72.1029998 213.6955,72.141 C213.575166,72.1790002 213.306002,72.198 212.888,72.198 C212.482665,72.2613336 212.064669,72.293 211.634,72.293 C211.558,72.293 211.4725,72.2961666 211.3775,72.3025 C211.2825,72.3088334 211.184334,72.3246665 211.083,72.35 C210.981666,72.3753335 210.908834,72.4133331 210.8645,72.464 C210.820166,72.5146669 210.772667,72.5969994 210.722,72.711 C210.684,72.7490002 210.595334,72.8946654 210.456,73.148 C210.278666,73.5153352 210.164667,73.7369996 210.114,73.813 C209.784665,74.7756715 209.531334,75.7699949 209.354,76.796 C209.341333,76.8720004 209.335,76.9669994 209.335,77.081 C209.335,77.2456675 209.388833,77.362833 209.4965,77.4325 C209.604167,77.502167 209.816332,77.537 210.133,77.537 C210.487668,77.537 210.823332,77.4926671 211.14,77.404 C211.520002,77.2393325 211.804999,77.1000006 211.995,76.986 C212.109001,76.9226663 212.2135,76.8625003 212.3085,76.8055 C212.4035,76.7484997 212.47,76.7073335 212.508,76.682 C212.558667,76.5806662 212.644166,76.5933327 212.7645,76.72 C212.884834,76.8466673 212.976666,76.9923325 213.04,77.157 C213.04,77.3850011 212.995667,77.5908324 212.907,77.7745 C212.818333,77.9581676 212.596668,78.1513323 212.242,78.354 C211.836665,78.6073346 211.418669,78.7909994 210.988,78.905 C210.557331,79.0190006 210.152002,79.076 209.772,79.076 C209.556666,79.076 209.360334,79.0570002 209.183,79.019 Z M215.453,75.732 C215.199665,75.732 214.978001,75.7003336 214.788,75.637 C214.471332,75.637 214.243334,75.5103346 214.104,75.257 C214.040666,75.1809996 214.009,75.0986671 214.009,75.01 C214.009,74.7946656 214.363663,74.6490004 215.073,74.573 C215.871004,74.3956658 216.757662,74.307 217.733,74.307 C218.341003,74.307 218.784332,74.4399987 219.063,74.706 C219.177001,74.8200006 219.234,74.9529992 219.234,75.105 C219.234,75.244334 219.173834,75.3583329 219.0535,75.447 C218.933166,75.5356671 218.784334,75.5673335 218.607,75.542 L217.277,75.637 C217.213666,75.637 216.992002,75.6528332 216.612,75.6845 C216.231998,75.7161668 215.845669,75.732 215.453,75.732 Z M222.711,80.007 L222.73,79.95 C222.73,79.8233327 222.622334,79.7536667 222.407,79.741 C222.140999,79.5763325 221.856002,79.294502 221.552,78.8955 C221.247998,78.496498 221.058,78.1893344 220.982,77.974 C220.944,77.8726662 220.925,77.8030002 220.925,77.765 C220.925,77.7016663 220.950333,77.6541668 221.001,77.6225 C221.051667,77.5908332 221.115,77.5591668 221.191,77.5275 C221.267,77.4958332 221.324,77.4736667 221.362,77.461 C221.590001,77.3089992 221.760999,77.233 221.875,77.233 C222.001667,77.233 222.109333,77.3153325 222.198,77.48 C222.375334,77.7966682 222.660331,78.059499 223.053,78.2685 C223.445669,78.477501 223.882664,78.582 224.364,78.582 C224.794669,78.582 225.180998,78.5060008 225.523,78.354 C225.852335,78.2019992 226.017,77.9803348 226.017,77.689 C226.017,77.4736656 225.922001,77.2140015 225.732,76.91 C225.706667,76.8339996 225.662334,76.7643336 225.599,76.701 C225.535666,76.6376663 225.459667,76.5743336 225.371,76.511 C225.168332,76.3589992 224.946668,76.1626679 224.706,75.922 C224.503332,75.8459996 224.294334,75.7446673 224.079,75.618 L223.68,75.428 C223.363332,75.2759992 223.008669,75.0321683 222.616,74.6965 C222.223331,74.3608317 221.951001,74.0473348 221.799,73.756 C221.520332,73.4899987 221.381,73.0846694 221.381,72.54 C221.381,71.9446637 221.520332,71.3873359 221.799,70.868 C221.951001,70.5259983 222.31833,70.0003369 222.901,69.291 C223.48367,68.5816631 223.914332,68.1383342 224.193,67.961 L224.687,67.486 C224.699667,67.4353331 224.718667,67.4068334 224.744,67.4005 C224.769333,67.3941666 224.788333,67.391 224.801,67.391 C224.839,67.3656665 224.971999,67.3055005 225.2,67.2105 C225.428001,67.1154995 225.668665,66.9476679 225.922,66.707 C226.694671,66.3269981 227.38183,66.0578341 227.9835,65.8995 C228.58517,65.7411659 229.088665,65.662 229.494,65.662 C229.988002,65.6873335 230.447165,65.864665 230.8715,66.194 C231.295835,66.523335 231.539666,66.9033312 231.603,67.334 C231.628333,67.4606673 231.641,67.5619996 231.641,67.638 C231.641,68.106669 231.451002,68.6323304 231.071,69.215 C230.690998,69.7976696 230.285669,70.2093321 229.855,70.45 C229.664999,70.5386671 229.481334,70.583 229.304,70.583 C229.088666,70.583 228.914501,70.5260006 228.7815,70.412 C228.648499,70.2979994 228.588333,70.1523342 228.601,69.975 C228.601,69.8609994 228.642166,69.7311674 228.7245,69.5855 C228.806834,69.4398326 228.993665,69.202335 229.285,68.873 C229.715669,68.2396635 229.931,67.7836681 229.931,67.505 C229.931,67.314999 229.817001,67.2010002 229.589,67.163 C229.449666,67.1249998 229.072836,67.1788326 228.4585,67.3245 C227.844164,67.4701674 227.537,67.5746663 227.537,67.638 C227.537,67.6506667 227.533833,67.6728332 227.5275,67.7045 C227.521167,67.7361668 227.499,67.7456667 227.461,67.733 C227.410333,67.7203333 227.052503,67.9293312 226.3875,68.36 C225.722497,68.7906688 225.377333,69.0376663 225.352,69.101 C225.339333,69.1643336 225.291834,69.230833 225.2095,69.3005 C225.127166,69.370167 225.029001,69.4303331 224.915,69.481 C224.686999,69.620334 224.481168,69.8103321 224.2975,70.051 C224.113832,70.2916679 223.876335,70.6716641 223.585,71.191 C223.432999,71.4063344 223.3095,71.6406654 223.2145,71.894 C223.1195,72.1473346 223.072,72.3753323 223.072,72.578 C223.072,72.717334 223.091,72.8376662 223.129,72.939 C223.179667,73.1290009 223.315832,73.3031659 223.5375,73.4615 C223.759168,73.6198341 224.186663,73.8889981 224.82,74.269 C225.466003,74.6363352 226.048664,75.0258313 226.568,75.4375 C227.087336,75.8491687 227.403999,76.1753321 227.518,76.416 C227.720668,76.7073348 227.822,77.087331 227.822,77.556 C227.822,77.9233352 227.771334,78.271665 227.67,78.601 C227.555999,78.8416679 227.410334,79.066499 227.233,79.2755 C227.055666,79.484501 226.897334,79.5826667 226.758,79.57 C226.631333,79.6080002 226.523667,79.6554997 226.435,79.7125 C226.346333,79.7695003 226.270334,79.8106665 226.207,79.836 C226.054999,79.9246671 225.665503,80.0164995 225.0385,80.1115 C224.411497,80.2065005 223.889002,80.2476667 223.471,80.235 L222.711,80.007 Z M231.641,79.076 C231.488999,79.1013335 231.368667,79.114 231.28,79.114 C230.760664,79.114 230.301502,78.9461683 229.9025,78.6105 C229.503498,78.2748317 229.304,77.8473359 229.304,77.328 L229.285,77.024 C229.285,76.4286637 229.417999,75.7383373 229.684,74.953 C229.950001,74.1676627 230.279331,73.5280025 230.672,73.034 C230.988668,72.6666648 231.260999,72.3690011 231.489,72.141 C231.717001,71.9129989 231.925999,71.7610004 232.116,71.685 C232.280667,71.6216663 232.489665,71.5646669 232.743,71.514 C232.996335,71.4633331 233.186333,71.438 233.313,71.438 C233.566335,71.5013336 233.803832,71.5899994 234.0255,71.704 C234.247168,71.8180006 234.358,71.944666 234.358,72.084 L234.453,72.179 C234.541667,72.179 234.646166,72.3183319 234.7665,72.597 C234.886834,72.8756681 234.947,73.1289989 234.947,73.357 C234.947,73.4710006 234.928,73.5659996 234.89,73.642 C234.839333,73.8826679 234.741167,74.1169989 234.5955,74.345 C234.449833,74.5730011 234.326334,74.687 234.225,74.687 C234.085666,74.687 234.016,74.7249996 234.016,74.801 C234.016,74.8643336 233.940001,74.896 233.788,74.896 C233.661333,74.896 233.528334,74.8675003 233.389,74.8105 C233.249666,74.7534997 233.167333,74.6806671 233.142,74.592 C233.142,74.5286663 233.192666,74.2753355 233.294,73.832 C233.332,73.641999 233.351,73.4836673 233.351,73.357 C233.351,73.1289989 233.275001,73.015 233.123,73.015 C233.085,73.015 232.990001,73.0403331 232.838,73.091 C232.508665,73.2683342 232.245834,73.4741655 232.0495,73.7085 C231.853166,73.9428345 231.679001,74.2626646 231.527,74.668 C231.374999,75.0733354 231.197668,75.6623295 230.995,76.435 C230.957,76.5870008 230.938,76.7263327 230.938,76.853 C230.938,77.0050008 230.957,77.1284995 230.995,77.2235 C231.033,77.3185005 231.071,77.3723333 231.109,77.385 C231.172334,77.4103335 231.286333,77.423 231.451,77.423 C231.767668,77.423 232.020999,77.3660006 232.211,77.252 C232.439001,77.1253327 232.660666,76.9828341 232.876,76.8245 C233.091334,76.6661659 233.224333,76.5680002 233.275,76.53 C233.300333,76.5046665 233.351,76.4318339 233.427,76.3115 C233.503,76.1911661 233.585333,76.1120002 233.674,76.074 C233.75,75.9599994 233.844999,75.8903335 233.959,75.865 C234.073001,75.8396665 234.186999,75.827 234.301,75.827 L234.529,75.827 C234.693667,75.8776669 234.851999,75.9916658 235.004,76.169 C235.156001,76.3463342 235.181334,76.4603331 235.08,76.511 C235.042,76.511 235.016667,76.5236665 235.004,76.549 C234.991333,76.5743335 234.985,76.5933333 234.985,76.606 C235.010333,76.6693336 234.909001,76.8371653 234.681,77.1095 C234.452999,77.3818347 234.199668,77.6414988 233.921,77.8885 C233.642332,78.1355012 233.452334,78.259 233.351,78.259 C233.300333,78.259 233.256,78.2653333 233.218,78.278 C233.18,78.2906667 233.161,78.3223331 233.161,78.373 C233.161,78.4236669 232.967835,78.5408324 232.5815,78.7245 C232.195165,78.9081676 231.881668,79.0253331 231.641,79.076 Z M236.714,78.601 C236.676,78.5249996 236.568334,78.4236673 236.391,78.297 C236.213666,78.1703327 236.125,78.0943335 236.125,78.069 C236.125,78.0183331 236.0965,77.9455005 236.0395,77.8505 C235.9825,77.7554995 235.928667,77.6700004 235.878,77.594 C235.776666,77.4926662 235.846332,77.1633361 236.087,76.606 C236.327668,76.0486639 236.650665,75.3900038 237.056,74.63 C237.132,74.5539996 237.230166,74.4210009 237.3505,74.231 C237.470834,74.040999 237.55,73.9333335 237.588,73.908 C237.588,73.8573331 237.607,73.8098336 237.645,73.7655 C237.683,73.7211664 237.727333,73.699 237.778,73.699 L237.93,73.395 C237.980667,73.2809994 238.227664,73.0086688 238.671,72.578 C239.114336,72.1473312 239.462665,71.8560008 239.716,71.704 C239.956668,71.5393325 240.216332,71.457 240.495,71.457 C240.799002,71.457 241.058666,71.5456658 241.274,71.723 L241.787,72.16 C242.167002,72.4766682 242.382333,72.6603331 242.433,72.711 L243.136,73.338 L242.813,74.288 C242.698999,74.6300017 242.642,74.9529985 242.642,75.257 C242.642,75.7383357 242.774999,76.1879979 243.041,76.606 C243.104334,76.745334 243.189833,76.8529996 243.2975,76.929 C243.405167,77.0050004 243.547666,77.0556665 243.725,77.081 C244.003668,77.1316669 244.143,77.2709989 244.143,77.499 C244.143,77.7776681 244.092334,77.986666 243.991,78.126 C243.889666,78.265334 243.769334,78.3539998 243.63,78.392 C243.427332,78.4173335 243.288,78.43 243.212,78.43 C242.844665,78.43 242.509002,78.3350009 242.205,78.145 C241.900998,77.954999 241.635001,77.6320023 241.407,77.176 C241.356333,77.0999996 241.289834,76.9606677 241.2075,76.758 C241.125166,76.5553323 241.077667,76.4160004 241.065,76.34 C240.976333,76.4666673 240.830668,76.6313323 240.628,76.834 C239.323327,78.1513399 238.265671,78.81 237.455,78.81 C237.176332,78.81 236.929334,78.740334 236.714,78.601 Z M237.759,77.024 C237.961668,77.0493335 238.35433,76.8213357 238.937,76.34 C239.000334,76.2893331 239.07,76.229167 239.146,76.1595 C239.222,76.089833 239.304333,76.0170004 239.393,75.941 C239.747668,75.6496652 240.023166,75.4058343 240.2195,75.2095 C240.415834,75.0131657 240.615332,74.7756681 240.818,74.497 L241.236,73.813 C241.109333,73.5343319 240.995334,73.3475005 240.894,73.2525 C240.792666,73.1574995 240.691334,73.11 240.59,73.11 C240.336665,73.11 240.020002,73.3348311 239.64,73.7845 C239.259998,74.2341689 238.804003,74.9149954 238.272,75.827 C238.132666,76.0550011 238.018667,76.2924988 237.93,76.5395 C237.841333,76.7865012 237.784333,76.9479996 237.759,77.024 Z M245.226,78.544 C245.061333,78.4553329 244.912501,78.3381674 244.7795,78.1925 C244.646499,78.0468326 244.58,77.9106673 244.58,77.784 C244.58,77.6066658 244.602166,77.3786681 244.6465,77.1 C244.690834,76.8213319 244.744666,76.5680011 244.808,76.34 C244.846,76.0233317 244.887166,75.7668343 244.9315,75.5705 C244.975834,75.3741657 245.054999,75.1810009 245.169,74.991 C245.219667,74.800999 245.308333,74.5160019 245.435,74.136 C245.713668,73.2493289 245.903666,72.5653357 246.005,72.084 C246.106334,71.8053319 246.195,71.5583344 246.271,71.343 C246.347,71.1276656 246.416666,70.9313342 246.48,70.754 C246.454667,70.8300004 246.612998,70.399338 246.955,69.462 C247.056334,69.1579985 247.126,68.9236675 247.164,68.759 C247.303334,68.1889971 247.461666,67.7583348 247.639,67.467 C247.727667,67.3403327 247.794166,67.2326671 247.8385,67.144 C247.882834,67.0553329 247.924,66.9856669 247.962,66.935 C247.974667,66.8843331 248.041166,66.8400002 248.1615,66.802 C248.281834,66.7639998 248.405333,66.745 248.532,66.745 C248.671334,66.745 248.766333,66.7703331 248.817,66.821 C248.880334,66.7956665 248.991166,66.9001655 249.1495,67.1345 C249.307834,67.3688345 249.380667,67.5366662 249.368,67.638 C249.368,67.8026675 249.323667,67.954666 249.235,68.094 C249.184333,68.1446669 249.127334,68.2364993 249.064,68.3695 C249.000666,68.5025007 248.943667,68.6133329 248.893,68.702 C248.867667,68.7906671 248.8265,68.939499 248.7695,69.1485 C248.7125,69.357501 248.658667,69.531666 248.608,69.671 C248.544666,69.8230008 248.4845,69.9654993 248.4275,70.0985 C248.3705,70.2315007 248.323,70.3486662 248.285,70.45 C248.234333,70.6146675 248.145667,70.861665 248.019,71.191 C247.841666,71.6216688 247.721334,71.9573321 247.658,72.198 C247.632667,72.2740004 247.588334,72.4323321 247.525,72.673 C247.347666,73.3063365 247.176667,73.7686652 247.012,74.06 C246.910666,74.2246675 246.837834,74.4463319 246.7935,74.725 C246.749166,75.0036681 246.720667,75.1746663 246.708,75.238 C246.517999,75.8080028 246.423,76.1436662 246.423,76.245 C246.397667,76.3590006 246.353334,76.580665 246.29,76.91 C246.214,77.3153354 246.138,77.6066658 246.062,77.784 C246.036667,77.9740009 245.963834,78.1576658 245.8435,78.335 C245.723166,78.5123342 245.587001,78.601 245.435,78.601 C245.371666,78.601 245.302,78.5820002 245.226,78.544 Z M250.033,79.342 C248.588993,79.342 247.867,78.5186749 247.867,76.872 C247.867,76.2766637 248.015832,75.6021704 248.3135,74.8485 C248.611168,74.0948296 248.984831,73.4171697 249.4345,72.8155 C249.884169,72.2138303 250.330664,71.8116677 250.774,71.609 C251.014668,71.4823327 251.293332,71.419 251.61,71.419 C252.180003,71.419 252.677165,71.5424988 253.1015,71.7895 C253.525835,72.0365012 253.738,72.5019966 253.738,73.186 C253.738,73.5786686 253.605001,74.009331 253.339,74.478 C253.072999,74.946669 252.740502,75.3424984 252.3415,75.6655 C251.942498,75.9885016 251.553002,76.15 251.173,76.15 C250.602997,76.15 250.121669,75.9663352 249.729,75.599 C249.513666,76.0296688 249.406,76.4413314 249.406,76.834 C249.406,77.1506682 249.444,77.3944991 249.52,77.5655 C249.596,77.7365009 249.773332,77.822 250.052,77.822 C250.318001,77.822 250.533333,77.7840004 250.698,77.708 C250.862667,77.6319996 251.014666,77.5433338 251.154,77.442 C251.293334,77.3406662 251.401,77.2646669 251.477,77.214 L251.553,77.176 L251.534,77.176 C251.762001,77.0493327 251.929833,76.951167 252.0375,76.8815 C252.145167,76.811833 252.237,76.7643335 252.313,76.739 C252.503001,76.739 252.680333,76.7959994 252.845,76.91 C253.009667,77.0240006 253.092,77.1633325 253.092,77.328 C253.092,77.4546673 252.978001,77.6604986 252.75,77.9455 C252.521999,78.2305014 252.287668,78.4299994 252.047,78.544 L251.819,78.658 L251.838,78.658 C251.723999,78.8100008 251.610001,78.886 251.496,78.886 L251.344,78.886 C251.293333,78.9873338 251.125501,79.0886662 250.8405,79.19 C250.555499,79.2913338 250.286335,79.342 250.033,79.342 Z M251.021,74.763 C251.375668,74.763 251.670165,74.6110015 251.9045,74.307 C252.138835,74.0029985 252.256,73.6990015 252.256,73.395 C252.256,73.255666 252.221167,73.1290006 252.1515,73.015 C252.081833,72.9009994 251.990001,72.844 251.876,72.844 C251.660666,72.844 251.420001,72.9453323 251.154,73.148 C250.887999,73.3506677 250.653668,73.616665 250.451,73.946 L250.204,74.345 C250.254667,74.3196665 250.292667,74.307 250.318,74.307 C250.419334,74.307 250.495333,74.3513329 250.546,74.44 C250.596667,74.5286671 250.653666,74.6046663 250.717,74.668 C250.780334,74.7313336 250.881666,74.763 251.021,74.763 Z" id="path-1"></path>
        <polygon id="path-2" points="0 32.2826087 212.791829 32.2826087 212.791829 0.0999469565 0 0.0999469565"></polygon>
    </defs>
    <g id="Desktop-Copy-18" stroke="none" stroke-width="1" fill="none" fill-rule="evenodd" transform="translate(0.000000, -16.000000)">
        <g id="Group" transform="translate(0.000000, 16.000000)">
            <rect id="Rectangle-6" fill="#C62020" x="0" y="0" width="298" height="112"></rect>
            <g id="Enabling-FinTech-at-">
                <use fill="#F2F2F2" xlink:href="#path-1"></use>
                <use fill="#FFFFFF" xlink:href="#path-1"></use>
            </g>
            <g id="Page-1" transform="translate(41.000000, 28.000000)">
                <polygon id="Fill-1" fill="#FFFFFF" points="61 29 55.6316395 29 55.6316395 20.613981 52.718609 29 47.3421477 29 44.3683605 20.3547907 44.3683605 29 39 29 39 5 44.4658244 5 50.0318973 21.1921158 55.6316395 5 61 5"></polygon>
                <polygon id="Fill-2" fill="#FFFFFF" points="72.8920176 10.4182263 72.8920176 14.289227 80.3325926 14.289227 80.3325926 19.7074533 72.8920176 19.7074533 72.8920176 23.5833058 83 23.5833058 83 29 67 29 67 5 83 5 83 10.4182263"></polygon>
                <g id="Group-16">
                    <path d="M103.593745,17.1240644 C103.593745,18.754207 103.29407,20.3029975 102.692943,21.776634 C102.093594,23.2456218 101.216939,24.5645601 100.059673,25.7370644 C98.9921313,26.8070392 97.78708,27.6409636 96.4503652,28.2336723 C95.1118711,28.8346453 93.7032243,29.1732253 92.2287458,29.2628418 L86.7024379,29.2628418 L86.7024379,4.98838617 L91.5185764,4.98838617 C93.1262434,4.98838617 94.6617243,5.28822704 96.1250191,5.88429313 C97.5946683,6.48500791 98.9041862,7.35792965 100.059673,8.50925661 C101.216939,9.68666791 102.093594,11.0089636 102.692943,12.4764018 C103.29407,13.9420323 103.593745,15.4923723 103.593745,17.1240644" id="Fill-3" fill="#FFFFFF"></path>
                    <mask id="mask-3" fill="white">
                        <use xlink:href="#path-2"></use>
                    </mask>
                    <g id="Clip-6"></g>
                    <polygon id="Fill-5" fill="#FFFFFF" mask="url(#mask-3)" points="108.570014 29.2625061 113.963388 29.2625061 113.963388 4.98985826 108.570014 4.98985826"></polygon>
                    <path d="M128.381429,23.8122978 C128.916725,23.8122978 129.412115,23.7015039 129.87675,23.47191 C130.33681,23.2456735 130.743746,22.93137 131.095018,22.540363 C131.447561,22.146257 131.728172,21.6904265 131.933293,21.1677065 C132.133584,20.6480857 132.234492,20.0961822 132.234492,19.5114796 L137.629391,19.5114796 C137.629391,20.8125978 137.403428,22.0535413 136.957856,23.229403 C136.505676,24.403457 135.838971,25.4587109 134.963841,26.3902578 C134.09049,27.3298109 133.08878,28.0431274 131.965319,28.5431204 C130.840079,29.0431135 129.644433,29.2954343 128.381429,29.2954343 L128.350928,29.2954343 C127.084874,29.2954343 125.900411,29.0431135 124.78483,28.5431204 C123.671028,28.0431274 122.664489,27.3298109 121.766991,26.3902578 C120.935071,25.4783387 120.285904,24.4507187 119.824319,23.3058483 C119.361209,22.1625274 119.125588,20.9657465 119.099916,19.7051752 L119.099916,14.6781274 C119.125588,13.3687448 119.361209,12.1474291 119.810085,10.9893874 C120.260232,9.83806043 120.910924,8.80579174 121.766991,7.89542217 C122.664489,6.96051783 123.671028,6.23919522 124.788134,5.73274565 C125.900411,5.24101696 127.084874,4.98843783 128.350928,4.98843783 L128.381429,4.98843783 C129.644433,4.98843783 130.840079,5.24101696 131.965319,5.73274565 C133.08878,6.23919522 134.09049,6.96051783 134.963841,7.89542217 C135.838971,8.8285187 136.505676,9.88222304 136.957856,11.056277 C137.403428,12.2303309 137.629391,13.4697248 137.629391,14.77575 L132.234492,14.77575 C132.234492,14.1879483 132.133584,13.634237 131.933293,13.111517 C131.728172,12.5869891 131.447561,12.1327083 131.095018,11.7419596 C130.743746,11.3478535 130.33681,11.0400065 129.87675,10.8104126 C129.412115,10.5808187 128.916725,10.4700248 128.381429,10.4700248 C127.849437,10.4700248 127.346168,10.5808187 126.874924,10.8104126 C126.402156,11.0400065 125.98861,11.3478535 125.636067,11.7419596 C125.283524,12.1327083 125.006218,12.5869891 124.805672,13.111517 C124.599027,13.634237 124.496339,14.1879483 124.496339,14.77575 L124.496339,19.5114796 C124.496339,20.0961822 124.599027,20.6480857 124.805672,21.1677065 C125.006218,21.6904265 125.283524,22.146257 125.636067,22.540363 C125.98861,22.93137 126.402156,23.2456735 126.874924,23.47191 C127.346168,23.7015039 127.849437,23.8122978 128.381429,23.8122978" id="Fill-7" fill="#FFFFFF" mask="url(#mask-3)"></path>
                    <path d="M29.9236024,8.85390574 C25.9353172,0.946732696 16.3935272,-2.17848209 8.61114773,1.87414748 C1.65992578,5.49367357 -1.53126158,13.6146866 0.707780191,20.943097 C6.28314415,18.1998501 11.7881012,15.2654901 17.16902,12.1859875 C18.6473112,11.3399249 21.5573792,12.715164 19.386711,13.9573988 C13.5960594,17.2714023 7.66027303,20.413404 1.64950453,23.3338179 C1.68102243,23.3986414 1.70923604,23.4642397 1.74177064,23.5288049 C2.06050811,24.1610275 2.41864296,24.7594179 2.80499141,25.3293997 C9.39655346,21.9020197 16.0552181,18.6104849 22.7858148,15.472357 C23.8945332,14.9553188 27.1322348,15.5064475 24.8962432,16.5490466 C17.854026,19.8325753 10.8923828,23.2865562 4.00623007,26.8934275 C8.68689236,32.2407188 16.4951979,33.9240631 23.0539711,30.5085631 C30.8363506,26.4564501 33.9118876,16.7610788 29.9236024,8.85390574" id="Fill-8" fill="#FFFFFF" mask="url(#mask-3)"></path>
                    <polygon id="Fill-9" fill="#FFFFFF" mask="url(#mask-3)" points="147.9559 23.5711855 147.9559 4.98983243 142.562527 4.98983243 142.562527 27.386215"></polygon>
                    <polygon id="Fill-10" fill="#FFFFFF" mask="url(#mask-3)" points="142.625258 29.2625061 147.955849 29.2625061 147.955849 25.4918974"></polygon>
                    <polygon id="Fill-11" fill="#FFFFFF" mask="url(#mask-3)" points="153.710103 3.2855173 152.758466 3.2855173 152.758466 6.97968078 151.880031 6.97968078 151.880031 3.2855173 150.928394 3.2855173 150.928394 2.55412252 153.710103 2.55412252"></polygon>
                    <polygon id="Fill-12" fill="#FFFFFF" mask="url(#mask-3)" points="155.412019 2.55412252 156.034243 5.678046 156.046443 5.678046 156.674768 2.55412252 157.974119 2.55412252 157.974119 6.97968078 157.168887 6.97968078 157.168887 3.44667209 157.156687 3.44667209 156.381957 6.97968078 155.69873 6.97968078 154.924 3.44667209 154.911799 3.44667209 154.911799 6.97968078 154.106568 6.97968078 154.106568 2.55412252"></polygon>
                    <path d="M171.613058,17.3542265 C174.46797,17.3542265 176.214671,15.5453674 176.214671,12.6445813 C176.214671,9.74379522 174.46797,8.03746565 171.646609,8.03746565 L166.810137,8.03746565 L166.810137,17.3542265 L171.613058,17.3542265 Z M163.484998,5.10258913 L172.150387,5.10258913 C176.483336,5.10258913 179.606912,8.07181435 179.606912,12.6445813 C179.606912,17.2176065 176.483336,20.289103 172.150387,20.289103 L166.810137,20.289103 L166.810137,29.1962622 L163.484998,29.1962622 L163.484998,5.10258913 Z" id="Fill-13" fill="#FFFFFF" mask="url(#mask-3)"></path>
                    <path d="M183.201046,11.9280623 L186.358174,11.9280623 L186.358174,14.9311197 C186.358174,15.6477937 186.291071,16.2281058 186.291071,16.2281058 L186.358174,16.2281058 C187.130616,13.7025728 189.112431,11.7232615 191.73223,11.7232615 C192.168905,11.7232615 192.572029,11.7914423 192.572029,11.7914423 L192.572029,15.0677397 C192.572029,15.0677397 192.1351,14.9652102 191.631321,14.9652102 C189.549107,14.9652102 187.634648,16.4669971 186.861952,19.0263623 C186.559736,20.016018 186.459082,21.0741128 186.459082,22.1319493 L186.459082,29.1961589 L183.201046,29.1961589 L183.201046,11.9280623 Z" id="Fill-14" fill="#FFFFFF" mask="url(#mask-3)"></path>
                    <path d="M203.622688,26.7391166 C206.847172,26.7391166 209.466971,24.1454027 209.466971,20.5279427 C209.466971,16.9448314 206.847172,14.3852079 203.622688,14.3852079 C200.431755,14.3852079 197.778405,16.9448314 197.778405,20.5279427 C197.778405,24.1454027 200.431755,26.7391166 203.622688,26.7391166 M203.622688,11.5185123 C208.694274,11.5185123 212.791855,15.3066827 212.791855,20.5279427 C212.791855,25.7835514 208.694274,29.6058123 203.622688,29.6058123 C198.551102,29.6058123 194.453521,25.7835514 194.453521,20.5279427 C194.453521,15.3066827 198.551102,11.5185123 203.622688,11.5185123" id="Fill-15" fill="#FFFFFF" mask="url(#mask-3)"></path>
                </g>
            </g>
        </g>
    </g>
</svg>